:SAMPLES-PER-SECOND 30
:FULLY-SPECIFIED
:DEGREES
31
root  35.08788882 36.51714776 -14.82514809 10.01487541 1.25275743 3.111718893
lowerback  -8.816989899 0.5626279712 1.865869641
upperback  -3.820709944 0.2893239856 -2.423049927
thorax  1.008700013 -0.04070359841 -3.53241992
lowerneck  -16.77179909 1.872020006 1.546919942
upperneck  14.32269955 1.345999956 3.856389999
head  7.136509895 1.042389989 1.147699952
lclavicle  0 -4.497500157e-015 -2.743230041e-014
lhumerus  -43.41279984 24.75200081 72.07700348
lradius  -0.05526262522 -6.507048965e-006 28.01110077
lwrist  4.824992743e-007 -3.790274832e-007 -29.48009872
lhand  -4.418613151e-031 -36.95119858 -10.53829956
lfingers  90 7.125020027 -90
lthumb  94.81083561 -25.37489606 101.1111658
rclavicle  0 -4.497500157e-015 -2.743230041e-014
rhumerus  -33.08259964 -15.03450108 -74.93789673
rradius  -5.16745672e-007 2.214343908e-008 62.09500122
rwrist  1.380293725e-006 2.528095422e-007 -162.9880066
rhand  -1.767004104e-031 -2.314559937 -7.386290073
rfingers  -90 -7.125020027 -90
rthumb  -86.39967421 -8.267800093 -66.36799871
rfemur  -13.38155365 14.70352077 13.38196468
rtibia  -1.124157786 0.7334713936 21.46224976
rfoot  -0.8629746437 -18.82633209 -40.02004242
rtoes  4.083997502 19.59532089 -102.0186468
lfemur  -11.07146072 -17.24417877 -18.47467422
ltibia  1.508625746 1.183755159 16.28359985
lfoot  0.4890562594 -28.54954338 33.50738907
ltoes  -8.7367967 -18.06149335 -116.3666085
32
root  35.08311895 36.51497308 -14.81828314 10.04196644 1.358071327 3.086644888
lowerback  -8.850688934 0.5452079773 1.852479815
upperback  -3.812099934 0.2668899894 -2.441960096
thorax  1.034469962 -0.05163209885 -3.546819925
lowerneck  -16.74360085 1.865170002 1.58307004
upperneck  14.27750015 1.330629945 3.853859901
head  7.117579937 1.035840034 1.13846004
lclavicle  0 -4.497500157e-015 -2.743230041e-014
lhumerus  -43.37590027 24.73999977 72.08830261
lradius  -0.05598436669 -6.507048965e-006 27.9817009
lwrist  4.824992743e-007 -3.790274832e-007 -29.53660011
lhand  -0 -36.97629929 -10.54440022
lfingers  90 7.125020027 -90
lthumb  94.82388072 -25.38001952 101.138634
rclavicle  0 -4.497500157e-015 -2.743230041e-014
rhumerus  -31.97839928 -14.4499979 -75.18650055
rradius  -5.16745672e-007 2.214343908e-008 63.22689819
rwrist  1.380293725e-006 2.528095422e-007 -163.4360046
rhand  -1.766884001e-031 -2.216109991 -7.323999882
rfingers  -90 -7.125020027 -90
rthumb  -86.35573181 -8.329972505 -66.26843089
rfemur  -13.37794399 14.67284012 13.41602516
rtibia  -1.114408016 0.7675173879 21.42944908
rfoot  -0.8558627963 -18.76612854 -40.06976318
rtoes  4.056864323 19.60074395 -101.9377535
lfemur  -11.06867123 -17.19079018 -18.43312263
ltibia  1.539287448 1.272984743 16.24953079
lfoot  0.5204657912 -28.70449066 33.46227264
ltoes  -8.727834413 -18.06571413 -116.3377047
33
root  35.0816952 36.52130487 -14.81380613 10.05885029 1.379516006 3.098469019
lowerback  -8.880959511 0.5576690435 1.848409772
upperback  -3.814630032 0.2825469971 -2.449850082
thorax  1.049690008 -0.04412449896 -3.55133009
lowerneck  -16.70439911 1.84473002 1.603099942
upperneck  14.22840023 1.299679995 3.859560013
head  7.095510006 1.021430016 1.132650018
lclavicle  0 -4.497500157e-015 -2.743230041e-014
lhumerus  -43.37229919 24.79129982 72.06199646
lradius  -0.05670401081 -6.507048965e-006 27.98119926
lwrist  4.824992743e-007 -3.790274832e-007 -29.60250092
lhand  -0 -36.94869995 -10.56719971
lfingers  90 7.125020027 -90
lthumb  94.81589148 -25.40335017 101.1112628
rclavicle  0 -4.497500157e-015 -2.743230041e-014
rhumerus  -30.88999939 -13.70610142 -75.47350311
rradius  -5.16745672e-007 2.214343908e-008 64.50270081
rwrist  1.380293725e-006 2.528095422e-007 -163.7700043
rhand  -1.766621859e-031 -1.984290004 -7.286180019
rfingers  -90 -7.125020027 -90
rthumb  -86.29601227 -8.376451586 -66.04016796
rfemur  -13.37722206 14.72067165 13.41020107
rtibia  -1.113782883 0.798412919 21.42364883
rfoot  -0.840400815 -18.68628502 -40.08763504
rtoes  4.082399791 19.59564127 -102.0138829
lfemur  -11.03905201 -17.22920799 -18.46975708
ltibia  1.581854463 1.265079021 16.19725418
lfoot  0.5230358839 -28.65927505 33.46529007
ltoes  -8.68954188 -18.08368659 -116.2142827
34
root  35.08032251 36.51975196 -14.80650414 10.0783577 1.396556497 3.088222265
lowerback  -8.897190094 0.5782660246 1.835119367
upperback  -3.807009935 0.3110809922 -2.477329969
thorax  1.068699956 -0.02974650078 -3.56972003
lowerneck  -16.69249916 1.813760042 1.610790014
upperneck  14.1651001 1.248000026 3.912679911
head  7.073470116 1.000540018 1.142249942
lclavicle  0 -4.497500157e-015 -2.743230041e-014
lhumerus  -43.32109833 24.80979919 72.06310272
lradius  -0.05742155388 -6.507048965e-006 27.96489906
lwrist  4.824992743e-007 -3.790274832e-007 -29.54590034
lhand  -4.417981087e-031 -36.94029999 -10.58710003
lfingers  90 7.125020027 -90
lthumb  94.81621618 -25.4231656 101.1041122
rclavicle  0 -4.497500157e-015 -2.743230041e-014
rhumerus  -29.80669975 -13.08909893 -75.73560333
rradius  -5.16745672e-007 2.214343908e-008 65.7661972
rwrist  1.380293725e-006 2.528095422e-007 -164.220993
rhand  -1.766548279e-031 -1.914170027 -7.626080036
rfingers  -90 -7.125020027 -90
rthumb  -86.42234549 -8.069580557 -65.99186217
rfemur  -13.38772106 14.67973995 13.41961002
rtibia  -1.110330343 0.8092803955 21.4104538
rfoot  -0.8199201226 -18.66032982 -40.03927994
rtoes  4.074267502 19.59726997 -101.9896359
lfemur  -11.03691959 -17.25400734 -18.46218109
ltibia  1.592665672 1.257118225 16.17566872
lfoot  0.5127753615 -28.61499977 33.46157837
ltoes  -8.658281333 -18.09828505 -116.1136133
35
root  35.07855333 36.52162327 -14.80001465 10.10446358 1.42022109 3.09591794
lowerback  -8.919519424 0.5895110369 1.824839354
upperback  -3.791599989 0.3281469941 -2.4792099
thorax  1.098170042 -0.01998730004 -3.564280033
lowerneck  -16.70960045 1.805269957 1.555940032
upperneck  14.13029957 1.231860042 4.012350082
head  7.064340115 0.9982140064 1.18166995
lclavicle  0 -4.497500157e-015 -2.743230041e-014
lhumerus  -43.30599976 24.85409927 72.04180145
lradius  -0.05813699216 -6.507048965e-006 27.99300194
lwrist  4.824992743e-007 -3.790274832e-007 -29.61050034
lhand  -0 -36.91109848 -10.63360023
lfingers  90 7.125020027 -90
lthumb  94.81244006 -25.46989261 101.0770517
rclavicle  0 -4.497500157e-015 -2.743230041e-014
rhumerus  -28.66250038 -12.37469864 -75.89890289
rradius  -5.16745672e-007 2.214343908e-008 66.99469757
rwrist  1.380293725e-006 2.528095422e-007 -164.9279938
rhand  -1.766791629e-031 -2.137300014 -7.684050083
rfingers  -90 -7.125020027 -90
rthumb  -86.48752641 -8.004549636 -66.2124668
rfemur  -13.39906502 14.65123844 13.41238022
rtibia  -1.10867846 0.7986351252 21.40212059
rfoot  -0.814899385 -18.66981697 -40.02906036
rtoes  4.091169883 19.59388102 -102.0400338
lfemur  -11.04552555 -17.29354477 -18.47381401
ltibia  1.603762746 1.236489296 16.15157509
lfoot  0.4792816639 -28.55145645 33.40488434
ltoes  -8.676014735 -18.09001178 -116.1707111
36
root  35.087219 36.52442572 -14.79384054 10.03659725 1.201855779 3.110225677
lowerback  -8.970588684 0.6889260411 1.795770049
upperback  -3.807549953 0.4590210021 -2.494859934
thorax  1.11954999 0.04407320172 -3.551320076
lowerneck  -16.72190094 1.782099962 1.519410014
upperneck  14.06449986 1.193349957 4.108839989
head  7.04489994 0.9853600264 1.214269996
lclavicle  0 -4.497500157e-015 -2.743230041e-014
lhumerus  -43.23329926 24.82259941 72.06220245
lradius  -0.05885031819 -6.507048965e-006 28.01059723
lwrist  4.824992743e-007 -3.790274832e-007 -29.57220078
lhand  -0 -36.90370178 -10.60690022
lfingers  90 7.125020027 -90
lthumb  94.8032965 -25.44379348 101.0667513
rclavicle  0 -4.497500157e-015 -2.743230041e-014
rhumerus  -27.47069931 -11.70129871 -76.04229736
rradius  -5.16745672e-007 2.214343908e-008 68.17749786
rwrist  1.380293725e-006 2.528095422e-007 -165.7940063
rhand  -1.767200013e-031 -2.466710091 -7.658199787
rfingers  -90 -7.125020027 -90
rthumb  -86.5377246 -8.010581704 -66.53179902
rfemur  -13.29031563 14.73191738 13.36518097
rtibia  -1.07499373 0.7434638143 21.2997036
rfoot  -0.7392939925 -18.74093819 -39.90293121
rtoes  4.069473023 19.59822859 -101.9753417
lfemur  -10.93006325 -17.17791367 -18.56580925
ltibia  1.626615167 1.177651644 16.12995911
lfoot  0.4848825037 -28.45728493 33.45162582
ltoes  -8.718322212 -18.07018792 -116.3070345
37
root  35.08335624 36.52398417 -14.78765593 10.10817528 1.252744675 3.091311216
lowerback  -8.966150284 0.6918070316 1.790510178
upperback  -3.775700092 0.4669879973 -2.520190001
thorax  1.150779963 0.05000770092 -3.573970079
lowerneck  -16.67840004 1.745100021 1.510030031
upperneck  13.95899963 1.141559958 4.160369873
head  7.003709793 0.9625350237 1.225249887
lclavicle  0 -4.497500157e-015 -2.743230041e-014
lhumerus  -43.1568985 24.84059906 72.0664978
lradius  -0.05956153944 -6.507048965e-006 28.00520134
lwrist  4.824992743e-007 -3.790274832e-007 -29.52420235
lhand  -4.415548489e-031 -36.89830017 -10.55959988
lfingers  90 7.125020027 -90
lthumb  94.79074775 -25.3976094 101.0566937
rclavicle  0 -4.497500157e-015 -2.743230041e-014
rhumerus  -26.23500061 -11.02340221 -76.13269806
rradius  -5.16745672e-007 2.214343908e-008 69.5094986
rwrist  1.380293725e-006 2.528095422e-007 -166.0780029
rhand  -1.766862857e-031 -2.198319912 -7.641699791
rfingers  -90 -7.125020027 -90
rthumb  -86.48159599 -8.039988717 -66.26945796
rfemur  -13.32936573 14.68847847 13.37553215
rtibia  -1.05919826 0.7334368229 21.25216866
rfoot  -0.7213059664 -18.74858093 -39.90605164
rtoes  4.073237573 19.59747599 -101.9865652
lfemur  -11.04418755 -17.16646004 -18.49753761
ltibia  1.603055477 1.215722442 16.188097
lfoot  0.4911635518 -28.5378437 33.39514923
ltoes  -8.701386425 -18.07813801 -116.2524466
